# xmcd
#
# Track frame offsets:
#	150
#	19018
#	43504
#	67280
#	83867
#	105466
#	123005
#	138400
#	157869
#	175828
#	193497
#	208438
#	230242
#	247108
#	264190
#	282479
#
# Disc length: 4035 seconds
#
# Revision: 0
# Processed by: cddbd v1.5.2PL0 Copyright (c) Steve Scherf et al.
# Submitted via: EasyCDDAExtractor 10.0.3.1
#
DISCID=ee0fc110
DTITLE=Various Artist - ФOΛK  XHTOBH 2003
DYEAR=1900
DGENRE=
TTITLE0=I'll Drink And I'll Rage
TTITLE1=In love I Will Seek Safety
TTITLE2=Don't Cry Mum
TTITLE3=ALTANA
TTITLE4=Songs for the Cities
TTITLE5=First Love
TTITLE6=Don't Curse Me
TTITLE7=Eyes
TTITLE8=One More Time
TTITLE9=Het Fidane
TTITLE10=Nothing Is It
TTITLE11=Love Penalty
TTITLE12=Beautiful For You
TTITLE13=Golden Statue
TTITLE14=There Is No Life Without You
TTITLE15=Brother Without Brother
EXTD=
EXTT0=
EXTT1=
EXTT2=
EXTT3=
EXTT4=
EXTT5=
EXTT6=
EXTT7=
EXTT8=
EXTT9=
EXTT10=
EXTT11=
EXTT12=
EXTT13=
EXTT14=
EXTT15=
PLAYORDER=
